PathFileType	4	(X/Y/Z)	C:\Users\WrightLab\Desktop\Jo\P2_Trial12.trc
DataRate	CameraRate	NumFrames	NumMarkers	Units	OrigDataRate	OrigDataStartFrame	OrigNumFrames
100.00	100.00	       16	19	mm	100.00	245	       653
Frame#	Time	Headset_Front			Headset_Back			Headset_Left			Headset_Right			Left_Shoulder			Right_Shoulder			Sternum			C7			Left Elbow			Right Elbow			Left Wrist			Right Wrist			Left ASIS			Right ASIS			S2			Left Knee			Right Knee			Left Ankle			Right Ankle			
		X1	Y1	Z1	X2	Y2	Z2	X3	Y3	Z3	X4	Y4	Z4	X5	Y5	Z5	X6	Y6	Z6	X7	Y7	Z7	X8	Y8	Z8	X9	Y9	Z9	X10	Y10	Z10	X11	Y11	Z11	X12	Y12	Z12	X13	Y13	Z13	X14	Y14	Z14	X15	Y15	Z15	X16	Y16	Z16	X17	Y17	Z17	X18	Y18	Z18	X19	Y19	Z19	

245	2.440	-317.28430	1452.39160	316.50629	-436.59485	1661.47107	126.42281	-310.51999	1539.22656	129.30380	-433.36838	1548.02197	324.96423	-377.19531	1431.62915	23.87103	-582.58008	1413.81775	281.28079	-433.39716	1300.55933	185.41087	-578.25842	1419.97253	95.78090	-356.30658	1086.51599	-109.98533	-682.96552	1110.12878	388.93716	-381.32370	852.17194	-171.37134	-656.47717	894.26355	521.41412	-387.97021	1017.99933	157.59157	-483.66489	1002.71954	245.70837	-605.75879	934.88843	0.81616	-252.96889	487.50235	157.99498	-721.92462	528.79993	152.33719	-103.65749	190.63150	251.54303	-777.18365	97.60004	109.92525	
246	2.450	-309.29504	1450.51807	324.35388	-427.39929	1659.62354	133.45425	-302.61871	1537.28821	136.91518	-425.37265	1545.87219	331.99969	-370.30597	1429.28284	31.06893	-574.45581	1411.68958	289.11407	-424.90787	1298.57117	193.00398	-570.55170	1418.04224	103.28468	-352.45029	1084.60571	-103.54659	-673.36206	1107.73279	397.15271	-377.14200	849.96857	-164.79736	-645.90057	893.59558	530.95929	-381.66772	1015.98547	164.51079	-475.70419	1000.98608	252.16898	-597.93195	932.54199	9.12260	-246.81787	484.22791	162.45575	-716.57269	526.81348	158.52209	-88.50437	197.72598	255.94083	-775.74359	97.27860	110.73142	
247	2.460	-301.15137	1448.24182	331.43387	-420.39868	1657.65833	141.19444	-296.25861	1535.88354	143.53906	-417.03641	1544.47473	339.61526	-362.70767	1427.70459	38.03676	-565.39465	1409.32019	296.48868	-418.16644	1296.60596	201.13278	-562.42108	1415.72351	111.13361	-346.82227	1082.87036	-96.67330	-663.21191	1104.93079	404.77878	-372.65387	847.44617	-154.70763	-634.80811	892.29718	539.73999	-371.76361	1014.51611	171.83012	-467.41293	999.70020	259.61707	-590.03546	930.17877	16.84071	-240.01920	480.41251	167.95451	-712.36285	526.05988	165.88159	-73.80748	203.80219	259.39835	-775.38135	97.06874	111.00286	
248	2.470	-292.28284	1448.08167	339.90637	-412.54733	1656.07568	148.64230	-286.34647	1533.57959	151.08569	-408.46545	1542.12329	346.60416	-354.97235	1425.30457	45.12225	-556.53961	1407.14307	304.35034	-409.02670	1294.91443	208.14261	-554.61395	1413.61169	119.12786	-341.03638	1080.58582	-89.79347	-653.45959	1102.52405	412.76776	-368.23438	844.63171	-145.54172	-623.48566	890.77515	547.80475	-364.51471	1012.11945	176.78174	-458.84586	996.42035	265.60339	-581.84302	927.96173	24.20409	-233.40637	478.05811	173.17427	-707.11780	524.28760	172.64743	-61.00157	208.79222	263.59836	-774.57440	97.35129	111.37784	
249	2.480	-284.59711	1444.83423	345.34979	-403.32578	1653.49072	155.62218	-279.61816	1532.59888	157.25061	-400.49576	1540.54822	354.46042	-346.89368	1423.03442	52.10859	-547.91895	1405.11731	312.35971	-400.82736	1292.64221	215.29166	-546.37732	1411.61523	127.27029	-335.29218	1078.65381	-82.68069	-644.05969	1100.05652	420.36996	-362.73944	843.08643	-140.51590	-613.12085	889.53906	556.47028	-355.01672	1010.32013	184.61287	-449.18985	994.60657	274.16974	-573.29767	925.91748	31.93650	-225.85010	475.86560	179.19818	-701.87402	522.59259	179.70239	-48.64070	213.09079	268.04834	-773.71765	97.02274	112.24394	
250	2.490	-274.86884	1443.69885	352.33749	-395.56000	1652.22449	163.20537	-269.18576	1530.32166	165.51437	-391.42853	1539.23914	361.56171	-339.15311	1421.53027	59.08627	-539.12268	1403.04602	320.63739	-391.84076	1290.72278	223.42754	-537.83575	1409.76770	135.55716	-328.19052	1075.69531	-74.75890	-633.91718	1097.23987	427.33578	-356.05774	840.73767	-135.72224	-602.05115	887.75238	563.73254	-346.21140	1008.58826	192.52264	-439.94824	991.60437	280.31549	-564.26801	924.43073	39.22146	-218.92145	473.01349	185.24393	-696.52087	521.40601	186.99763	-36.10405	216.75128	272.25476	-773.47485	97.24361	113.31692	
251	2.500	-266.40103	1443.23804	362.24960	-386.53217	1649.89771	170.36732	-262.34204	1529.07690	171.96706	-383.01141	1537.61975	369.09909	-331.09674	1419.41260	66.41871	-529.68317	1400.89429	328.82388	-382.34622	1288.72595	230.64742	-529.79254	1408.04651	143.43657	-321.59647	1074.20166	-68.35786	-624.21527	1094.69128	434.69260	-350.11942	840.75854	-129.96844	-590.56976	885.68420	571.08844	-337.04269	1006.27808	198.72740	-430.18054	989.03131	287.51907	-555.12115	922.26672	47.50957	-211.15857	471.22934	191.17014	-690.99054	519.31079	194.63626	-24.65349	219.48495	276.22168	-771.39075	98.14154	115.11635	
252	2.510	-256.86200	1442.70422	367.42654	-377.98575	1648.73120	177.36829	-253.23672	1528.22302	179.49670	-373.50519	1536.51038	376.15601	-322.91940	1418.03906	72.93956	-520.20227	1399.29211	337.32111	-372.87744	1287.38647	237.86737	-520.71057	1406.59143	151.45773	-314.21735	1072.31909	-60.49660	-614.79913	1092.64978	442.21918	-343.07880	838.28839	-121.01191	-580.53534	884.27747	578.53339	-327.27686	1004.99609	206.65884	-419.47354	986.84546	296.33722	-545.45428	920.86749	54.78571	-202.92780	469.56271	197.28531	-685.65546	518.75159	202.50253	-13.06942	221.15735	280.02258	-769.31647	98.45718	116.31861	
253	2.520	-247.90935	1440.03186	373.43942	-368.66931	1646.90405	184.06000	-242.71841	1526.63403	187.06517	-365.34341	1535.10889	383.84027	-314.71561	1416.54150	80.21260	-509.64197	1397.58740	345.44162	-362.66238	1285.95947	244.57025	-511.77127	1404.44751	159.92680	-306.79156	1070.27222	-53.35485	-604.46863	1089.86719	449.28775	-335.58624	836.14093	-113.34371	-569.24292	882.00085	584.84668	-316.49045	1003.75629	214.26222	-408.50632	985.28137	305.19797	-535.39117	919.73969	62.74226	-194.34361	468.18741	202.83482	-679.66229	517.98273	210.06607	-2.96871	220.99234	283.81595	-766.82703	99.45793	118.94547	
254	2.530	-239.45314	1441.03723	386.00153	-361.40005	1645.55615	191.65259	-235.07556	1526.25049	194.29767	-355.61594	1534.19226	390.77856	-306.07101	1414.92273	86.72803	-499.36877	1396.11133	353.51544	-353.30954	1284.45605	251.74699	-502.68100	1403.23804	168.25803	-298.82617	1069.16663	-46.34886	-594.54633	1087.70142	456.36542				-558.06525	879.93304	591.52228	-306.82547	1002.14227	221.79965	-396.99750	983.06586	311.94946	-525.29413	918.25085	70.87022	-185.60361	465.97263	208.96059	-673.32642	516.93787	218.41185	6.63721	218.82974	287.52112	-765.04913	101.57674	122.64328	
255	2.540	-228.69930	1441.01343	392.56055	-352.13037	1644.26941	198.47081	-224.48793	1524.75928	202.03737	-347.70627	1533.52722	398.40060	-297.74872	1413.81396	93.53304	-489.49487	1394.86157	362.40128	-343.11511	1283.60303	260.05151	-493.30002	1401.70862	176.09850	-290.19012	1067.25525	-38.40768	-584.75177	1085.54321	463.44180	-318.44281	833.21936	-97.72749	-547.87207	877.70068	597.50488	-294.89108	1001.61865	228.51738	-385.64142	981.29376	320.12067	-514.61560	916.02020	80.97896	-176.75772	463.39731	215.65131	-666.11719	516.11969	226.51161	14.57558	214.10466	291.79517	-762.02472	102.29876	125.60978	
256	2.550	-219.48027	1440.16260	398.39868	-343.91632	1643.45776	205.26767	-214.69209	1524.36719	210.15741	-338.04608	1532.81409	405.48483	-288.58026	1412.85754	100.60165	-478.25143	1393.21619	370.36462	-332.55280	1282.11475	267.86621	-483.65634	1399.71484	184.60460	-281.67053	1066.34167	-31.06851	-575.12659	1083.54150	471.18991				-536.72485	875.13135	603.61798	-284.27524	1000.88489	236.49304	-373.51193	979.46942	327.76996	-504.12396	914.52417	90.17268	-167.81657	461.01947	220.69664	-658.76984	515.44006	235.10324	22.15834	207.94653	295.74887	-758.48236	103.97898	130.04185	
257	2.560	-211.10904	1439.64587	406.48041	-334.82907	1642.19788	212.51608	-207.09189	1524.41907	217.12564	-329.46313	1532.78772	412.74561	-279.64920	1411.66980	107.11967	-467.35651	1392.56165	378.47427	-321.59772	1281.50916	274.85443	-473.93884	1398.36194	192.55278	-272.80341	1065.00647	-24.33916	-564.32269	1081.54321	478.39005	-299.35413	829.49219	-77.95467	-525.33838	872.93542	609.13422	-271.65067	999.80457	244.43594	-360.75403	977.96136	336.15628	-492.65048	913.57050	98.54807	-159.02766	458.37939	226.13850	-650.52789	515.68286	244.44740	28.96562	201.78085	299.69418	-754.89868	105.87675	136.26639	
258	2.570	-201.22908	1440.10437	414.03220	-324.77969	1641.65564	219.09964	-197.25108	1525.15576	225.06798	-320.30328	1532.30908	419.84171	-270.79199	1411.16724	113.74344	-457.05081	1392.05286	386.87207	-310.88849	1281.80444	282.29401	-465.03528	1397.60571	199.91527	-263.20773	1064.15173	-16.93102	-554.42450	1080.19983	485.84061	-288.59628	828.44537	-71.44347	-515.41956	870.65234	615.06946	-259.86563	999.64038	251.33540	-348.89743	977.29724	344.61523	-481.81656	912.62000	107.14758	-151.04276	454.82089	231.75728	-639.90002	513.84735	253.71843	35.22280	193.98332	303.20868	-750.06012	107.97865	141.10886	
259	2.580	-191.27794	1442.37610	422.43964	-316.17160	1642.82324	226.90073	-185.35916	1525.83923	233.58392	-311.75540	1533.23975	427.75122	-261.53018	1410.86096	120.18188	-446.22949	1392.42200	394.88269	-300.38254	1282.71484	290.52295	-454.80374	1397.14819	207.94630	-252.77835	1063.17603	-9.00610	-543.75726	1079.26050	493.03503	-277.72974	828.05774	-66.33762	-506.05319	868.78192	620.72424	-248.58437	998.66937	258.79364	-336.17358	977.13330	352.52426	-470.42377	912.81366	114.92740	-141.84711	452.27438	236.59100	-627.96649	512.58789	263.12680	40.80148	186.41998	306.96899	-745.93945	110.17419	147.12338	
260	2.590	-181.90160	1445.38843	433.49515	-305.82639	1643.45984	234.60629	-175.22636	1528.06738	241.67067	-302.43179	1534.34546	435.26346	-252.23724	1410.95764	127.00585	-434.48526	1393.54065	402.71255	-288.89639	1283.63306	298.11304	-444.80508	1397.68335	216.60730	-242.60368	1062.86560	-1.34325	-533.55066	1079.27625	500.08331				-496.10895	866.94946	625.07898	-236.92300	999.15302	266.41193	-324.14993	976.24585	360.43451	-459.15820	913.25702	122.65028	-133.28172	450.92307	243.12859	-615.27747	511.94495	272.54019	46.17657	178.13182	310.04794	-740.09631	113.36391	153.99306	
